name Walk10.mot
datacolumns 19
datarows 27
range 3.48500000 3.61500000
endheader

                time	   L_ground_force_vx	   L_ground_force_vy	   L_ground_force_vz	   L_ground_force_px	   L_ground_force_py	   L_ground_force_pz	   R_ground_force_vx	   R_ground_force_vy	   R_ground_force_vz	   R_ground_force_px	   R_ground_force_py	   R_ground_force_pz	   L_ground_torque_x	   L_ground_torque_y	   L_ground_torque_z	   R_ground_torque_x	   R_ground_torque_y	   R_ground_torque_z	
          3.48500000	          0.00000000	          0.00000000	         -0.00000000	         -0.00000000	          0.00000000	         -0.00000000	         31.46821245	        134.71871194	          1.44732016	          0.27732653	          0.00000000	          0.06528677	          0.00000000	          0.00000000	          0.00000000	          0.00000000	         -6.87428769	          0.00000000	
          3.49000000	          0.00000000	          0.00000000	         -0.00000000	         -0.00000000	          0.00000000	         -0.00000000	         25.63304443	        104.56246355	          1.74812624	          0.25740687	          0.00000000	          0.05988714	          0.00000000	          0.00000000	          0.00000000	          0.00000000	         -5.77314865	          0.00000000	
          3.49500000	          0.00000000	          0.00000000	         -0.00000000	         -0.00000000	          0.00000000	         -0.00000000	         20.08645720	         77.90058334	          1.83337961	          0.23238906	          0.00000000	          0.05344705	          0.00000000	          0.00000000	          0.00000000	          0.00000000	         -4.67870526	          0.00000000	
          3.50000000	          0.00000000	         -0.00000000	         -0.00000000	         -0.00000000	          0.00000000	         -0.00000000	         15.02759855	         55.04120883	          1.75766828	          0.20263787	          0.00000000	          0.04608602	          0.00000000	          0.00000000	          0.00000000	          0.00000000	         -3.63691151	          0.00000000	
          3.50500000	         -0.00000000	         -0.00000000	         -0.00000000	         -0.00000000	          0.00000000	         -0.00000000	         10.61575784	         36.13766112	          1.57456560	          0.16935579	          0.00000000	          0.03810376	          0.00000000	          0.00000000	          0.00000000	          0.00000000	         -2.68963507	          0.00000000	
          3.51000000	         -0.00000000	         -0.00000000	         -0.00000000	         -0.00000000	          0.00000000	         -0.00000000	          6.94869435	         21.16757281	          1.33307967	          0.13488246	          0.00000000	          0.03002543	          0.00000000	         -0.00000000	          0.00000000	          0.00000000	         -1.87026644	          0.00000000	
          3.51500000	         -0.00000000	         -0.00000000	         -0.00000000	         -0.00000000	          0.00000000	         -0.00000000	          4.04752718	          9.89349503	          1.07279121	          0.10210970	          0.00000000	          0.02247068	          0.00000000	         -0.00000000	          0.00000000	          0.00000000	         -1.19690957	          0.00000000	
          3.52000000	         -0.00000000	         -0.00000000	         -0.00000000	          0.00000000	          0.00000000	          0.00000000	          1.86695441	          1.88119153	          0.82102845	          0.07301753	          0.00000000	          0.01584881	          0.00000000	         -0.00000000	          0.00000000	          0.00000000	         -0.67043779	          0.00000000	
          3.52500000	         -0.00000000	         -0.00000000	         -0.00000000	          0.00000000	          0.00000000	          0.00000000	          0.32094182	         -3.40572300	          0.59464444	          0.04858647	          0.00000000	          0.01034888	          0.00000000	         -0.00000000	          0.00000000	          0.00000000	         -0.27979811	          0.00000000	
          3.53000000	         -0.00000000	         -0.00000000	          0.00000000	          0.00000000	          0.00000000	          0.00000000	         -0.69586872	         -6.52676737	          0.40243958	          0.02907671	          0.00000000	          0.00600341	          0.00000000	         -0.00000000	          0.00000000	          0.00000000	         -0.00715980	          0.00000000	
          3.53500000	         -0.00000000	         -0.00000000	          0.00000000	          0.00000000	          0.00000000	          0.00000000	         -1.29289482	         -8.01204427	          0.24735422	          0.01426586	          0.00000000	          0.00274195	          0.00000000	         -0.00000000	          0.00000000	          0.00000000	          0.16824412	          0.00000000	
          3.54000000	         -0.00000000	         -0.00000000	          0.00000000	          0.00000000	          0.00000000	          0.00000000	         -1.57350375	         -8.33086775	          0.12833826	          0.00363969	          0.00000000	          0.00043358	          0.00000000	         -0.00000000	          0.00000000	          0.00000000	          0.26742118	          0.00000000	
          3.54500000	         -0.00000000	         -0.00000000	          0.00000000	          0.00000000	          0.00000000	          0.00000000	         -1.62900770	         -7.87645217	          0.04186562	         -0.00346252	          0.00000000	         -0.00108102	          0.00000000	         -0.00000000	          0.00000000	          0.00000000	          0.30987172	          0.00000000	
          3.55000000	         -0.00000000	         -0.00000000	          0.00000000	          0.00000000	          0.00000000	          0.00000000	         -1.53576649	         -6.96211212	         -0.01689867	         -0.00774319	          0.00000000	         -0.00196681	          0.00000000	         -0.00000000	          0.00000000	          0.00000000	          0.31258733	          0.00000000	
          3.55500000	         -0.00000000	         -0.00000000	          0.00000000	          0.00000000	          0.00000000	          0.00000000	         -1.35451215	         -5.82514468	         -0.05324659	         -0.00987590	          0.00000000	         -0.00237930	          0.00000000	         -0.00000000	          0.00000000	          0.00000000	          0.28960692	          0.00000000	
          3.56000000	         -0.00000000	         -0.00000000	          0.00000000	          0.00000000	          0.00000000	          0.00000000	         -1.13115172	         -4.63533097	         -0.07234465	         -0.01046251	          0.00000000	         -0.00245565	          0.00000000	         -0.00000000	          0.00000000	          0.00000000	          0.25196562	          0.00000000	
          3.56500000	         -0.00000000	         -0.00000000	          0.00000000	          0.00000000	          0.00000000	          0.00000000	         -0.89845458	         -3.50572786	         -0.07887027	         -0.01001123	          0.00000000	         -0.00231039	          0.00000000	         -0.00000000	          0.00000000	          0.00000000	          0.20789955	          0.00000000	
          3.57000000	         -0.00000000	          0.00000000	          0.00000000	          0.00000000	          0.00000000	          0.00000000	         -0.67817352	         -2.50407458	         -0.07681735	         -0.00893007	          0.00000000	         -0.00203452	          0.00000000	         -0.00000000	          0.00000000	          0.00000000	          0.16319849	          0.00000000	
          3.57500000	          0.00000000	          0.00000000	          0.00000000	          0.00000000	          0.00000000	          0.00000000	         -0.48327621	         -1.66369171	         -0.06942552	         -0.00753048	          0.00000000	         -0.00169671	          0.00000000	         -0.00000000	          0.00000000	          0.00000000	          0.12162554	          0.00000000	
          3.58000000	          0.00000000	          0.00000000	          0.00000000	          0.00000000	          0.00000000	          0.00000000	         -0.32007104	         -0.99319256	         -0.05919457	         -0.00603738	          0.00000000	         -0.00134588	          0.00000000	          0.00000000	          0.00000000	          0.00000000	          0.08534650	          0.00000000	
          3.58500000	          0.00000000	          0.00000000	          0.00000000	          0.00000000	          0.00000000	          0.00000000	         -0.19009698	         -0.48466492	         -0.04795208	         -0.00460240	          0.00000000	         -0.00101446	          0.00000000	          0.00000000	          0.00000000	          0.00000000	          0.05533158	          0.00000000	
          3.59000000	          0.00000000	          0.00000000	          0.00000000	         -0.00000000	          0.00000000	         -0.00000000	         -0.09171276	         -0.12022486	         -0.03695006	         -0.00331818	          0.00000000	         -0.00072170	          0.00000000	          0.00000000	          0.00000000	          0.00000000	          0.03170754	          0.00000000	
          3.59500000	          0.00000000	          0.00000000	          0.00000000	         -0.00000000	          0.00000000	         -0.00000000	         -0.02136749	          0.12299182	         -0.02697238	         -0.00223221	          0.00000000	         -0.00047687	          0.00000000	          0.00000000	          0.00000000	          0.00000000	          0.01405021	          0.00000000	
          3.60000000	          0.00000000	          0.00000000	         -0.00000000	         -0.00000000	          0.00000000	         -0.00000000	          0.02543347	          0.26923480	         -0.01844069	         -0.00135925	          0.00000000	         -0.00028216	          0.00000000	          0.00000000	          0.00000000	          0.00000000	          0.00161571	          0.00000000	
          3.60500000	          0.00000000	          0.00000000	         -0.00000000	         -0.00000000	          0.00000000	         -0.00000000	          0.05343455	          0.34172437	         -0.01151105	         -0.00069194	          0.00000000	         -0.00013498	          0.00000000	          0.00000000	          0.00000000	          0.00000000	         -0.00648608	          0.00000000	
          3.61000000	          0.00000000	          0.00000000	         -0.00000000	         -0.00000000	          0.00000000	         -0.00000000	          0.06716507	          0.36118427	         -0.00615682	         -0.00020929	          0.00000000	         -0.00002992	          0.00000000	          0.00000000	          0.00000000	          0.00000000	         -0.01116863	          0.00000000	
          3.61500000	          0.00000000	          0.00000000	         -0.00000000	         -0.00000000	          0.00000000	         -0.00000000	          0.07065824	          0.34509821	         -0.00223633	          0.00011678	          0.00000000	          0.00003982	          0.00000000	          0.00000000	          0.00000000	          0.00000000	         -0.01328815	          0.00000000	
